<?xml version="1.0" encoding="UTF-8"?>
<svg xmlns="http://www.w3.org/2000/svg" viewBox="0 0 660 575" width="660" height="575">
  <!-- ForgeVista FV Mark - Brand Blue #0076B6 -->

  <g transform="translate(-190, -233)">
    <path fill="#0076B6" d="
      M 400.26 433.86
      A 0.13 0.13 0.0 0 0 400.14 434.05
      L 536.29 697.79
      A 0.98 0.98 0.0 0 0 538.00 697.85
      Q 540.33 694.00 546.17 682.66
      Q 551.61 672.08 571.00 633.03
      Q 648.52 476.90 672.06 428.84
      Q 717.42 336.20 755.82 257.10
      Q 761.56 245.28 764.33 239.51
      A 1.79 1.77 12.6 0 1 765.94 238.50
      L 838.59 238.50
      A 0.24 0.23 -77.2 0 1 838.80 238.84
      Q 815.30 286.94 732.63 456.63
      C 699.38 524.90 679.51 564.33 633.27 657.25
      Q 590.73 742.70 564.27 795.02
      Q 563.35 796.84 561.27 796.85
      Q 543.45 796.97 513.36 796.89
      A 1.87 1.85 76.3 0 1 511.73 795.89
      L 325.52 435.18
      A 2.43 2.42 -13.8 0 0 323.37 433.88
      L 263.59 433.88
      A 0.69 0.68 0.0 0 0 262.90 434.56
      L 262.90 641.29
      A 0.81 0.81 0.0 0 1 261.73 642.02
      L 196.87 609.92
      A 1.72 1.71 -77.0 0 1 195.91 608.38
      L 195.91 239.60
      A 1.01 1.01 0.0 0 1 196.92 238.59
      L 620.58 238.59
      A 0.37 0.36 -75.8 0 1 620.90 239.13
      Q 618.90 242.90 617.84 245.36
      Q 604.17 277.07 591.65 300.79
      A 1.32 1.31 14.0 0 1 590.49 301.48
      L 263.73 301.48
      A 0.78 0.78 0.0 0 0 262.95 302.26
      Q 262.87 339.36 262.97 366.99
      Q 262.98 370.08 266.00 370.08
      Q 516.45 370.07 557.49 370.13
      A 0.63 0.63 0.0 0 1 558.02 371.11
      Q 555.73 374.59 554.95 376.20
      Q 551.27 383.68 535.10 418.01
      C 532.97 422.53 529.97 427.67 527.41 432.72
      A 2.09 2.07 -76.4 0 1 525.56 433.86
      L 400.26 433.86
      Z"/>
  </g>
</svg>
